<svg width="230" height="57" viewBox="0 0 230 57" fill="none" xmlns="http://www.w3.org/2000/svg">
<path d="M5.56774 27.6993L5.58026 27.6805L5.59154 27.661L16.2671 9.15664C16.6341 8.61557 17.1403 8.29728 17.8126 8.29728H39.1876C39.8598 8.29728 40.3661 8.61556 40.7331 9.15662L51.371 27.5957C51.5343 28.1385 51.5343 28.8616 51.371 29.4044L40.7331 47.8435C40.3661 48.3845 39.8598 48.7028 39.1876 48.7028H17.8126C17.1404 48.7028 16.6341 48.3845 16.2671 47.8434L5.59154 29.3391L5.58026 29.3196L5.56774 29.3008C5.24888 28.8225 5.24888 28.1776 5.56774 27.6993Z" fill="#801A88" stroke="white" stroke-width="1.3945"/>
<g clip-path="url(#clip0_228_49)">
<path fill-rule="evenodd" clip-rule="evenodd" d="M34.6844 36.0985C32.8428 37.1807 30.697 37.8013 28.4062 37.8013C26.1621 37.8013 24.0571 37.2057 22.2409 36.1641L23.3577 33.0321C24.8048 33.9904 26.5403 34.5486 28.4062 34.5486C30.3291 34.5486 32.1134 33.9559 33.5863 32.9433L34.6844 36.0985ZM36.2935 34.9731C39.0532 32.6986 40.8124 29.255 40.8124 25.4006C40.8124 25.2737 40.8105 25.1472 40.8067 25.0211H37.5506C37.5558 25.147 37.5583 25.2735 37.5583 25.4006C37.5583 27.8381 36.6045 30.053 35.0496 31.6927L36.2935 34.9731ZM37.1109 16.5648L34.8096 18.8645C33.1591 17.2487 30.899 16.2525 28.4062 16.2525C23.3517 16.2525 19.2541 20.3483 19.2541 25.4006C19.2541 27.9454 20.2937 30.2475 21.9715 31.9058L20.8378 35.2272C17.8955 32.9597 16 29.4014 16 25.4006C16 18.552 21.5544 13 28.4062 13C31.7977 13 34.8714 14.3603 37.1109 16.5648Z" fill="#F8E008"/>
<path d="M40.2704 25.0211H32.542L33.6267 28.0976H40.2704V25.0211Z" fill="#F4DC00"/>
<path d="M27.3218 21.5381H28.5421L29.3134 22.0334C29.793 22.3413 29.9954 22.9402 29.8008 23.4758L22.5767 43.3629H19.502L27.3218 21.5381Z" fill="white"/>
<path d="M27.3296 24.1497C26.9705 23.1974 27.3019 22.1229 28.1351 21.538L29.5262 21.5255L37.3615 43.3629H34.5755L27.3296 24.1497Z" fill="white"/>
</g>
<path d="M86.969 18.3669C86.969 20.9909 86.1905 23.0814 84.6336 24.6384C82.8842 26.4927 80.5838 27.4198 77.7323 27.4198C75.0033 27.4198 72.6942 26.4752 70.8049 24.5859C68.9156 22.6966 67.9709 20.3699 67.9709 17.6059C67.9709 14.8419 68.9156 12.5153 70.8049 10.626C72.6942 8.73667 75.0033 7.79202 77.7323 7.79202C79.1143 7.79202 80.4176 8.03693 81.6422 8.52675C82.8667 9.01657 83.8726 9.70757 84.6598 10.5997L82.9279 12.3316C82.3506 11.6319 81.5984 11.0896 80.6713 10.7047C79.7616 10.3023 78.7819 10.1012 77.7323 10.1012C75.6856 10.1012 73.9537 10.8097 72.5367 12.2266C71.1372 13.6611 70.4375 15.4542 70.4375 17.6059C70.4375 19.7576 71.1372 21.5507 72.5367 22.9852C73.9537 24.4022 75.6856 25.1107 77.7323 25.1107C79.6041 25.1107 81.1611 24.5859 82.4031 23.5363C83.6452 22.4866 84.3624 21.0434 84.5548 19.2066H77.7323V16.9499H86.8378C86.9252 17.4397 86.969 17.9121 86.969 18.3669ZM92.6049 9.70757C92.6049 10.1799 92.4387 10.5822 92.1063 10.9146C91.774 11.247 91.3716 11.4132 90.8993 11.4132C90.4269 11.4132 90.0246 11.247 89.6922 10.9146C89.3598 10.5822 89.1936 10.1799 89.1936 9.70757C89.1936 9.23524 89.3598 8.83289 89.6922 8.50051C90.0246 8.16813 90.4269 8.00194 90.8993 8.00194C91.3716 8.00194 91.774 8.16813 92.1063 8.50051C92.4387 8.83289 92.6049 9.23524 92.6049 9.70757ZM92.1063 14.1422V27H89.6922V14.1422H92.1063ZM94.3851 20.5711C94.3851 18.5943 95.0062 16.9587 96.2482 15.6641C97.5078 14.3696 99.0909 13.7224 100.998 13.7224C102.905 13.7224 104.479 14.3696 105.721 15.6641C106.981 16.9587 107.61 18.5943 107.61 20.5711C107.61 22.5654 106.981 24.201 105.721 25.4781C104.479 26.7726 102.905 27.4198 100.998 27.4198C99.0909 27.4198 97.5078 26.7726 96.2482 25.4781C95.0062 24.1835 94.3851 22.5479 94.3851 20.5711ZM96.7993 20.5711C96.7993 21.9531 97.2016 23.0727 98.0063 23.9299C98.811 24.7871 99.8082 25.2157 100.998 25.2157C102.187 25.2157 103.184 24.7871 103.989 23.9299C104.794 23.0727 105.196 21.9531 105.196 20.5711C105.196 19.2066 104.794 18.0958 103.989 17.2386C103.167 16.3639 102.17 15.9265 100.998 15.9265C99.8257 15.9265 98.8285 16.3639 98.0063 17.2386C97.2016 18.0958 96.7993 19.2066 96.7993 20.5711ZM115.792 27H113.378L108.182 14.1422H110.807L114.585 24.1136H114.638L118.469 14.1422H121.04L115.792 27ZM124.118 23.0639C124.118 23.6937 124.38 24.2185 124.905 24.6384C125.447 25.0582 126.077 25.2681 126.794 25.2681C127.809 25.2681 128.71 24.892 129.497 24.1398C130.302 23.3876 130.704 22.5041 130.704 21.4895C129.952 20.8947 128.902 20.5973 127.555 20.5973C126.576 20.5973 125.753 20.8335 125.089 21.3058C124.441 21.7782 124.118 22.3642 124.118 23.0639ZM127.24 13.7224C129.025 13.7224 130.433 14.2034 131.465 15.1656C132.497 16.1102 133.013 17.4135 133.013 19.0754V27H130.704V25.2157H130.599C129.602 26.6851 128.273 27.4198 126.611 27.4198C125.194 27.4198 124.004 27 123.042 26.1603C122.097 25.3206 121.625 24.271 121.625 23.0115C121.625 21.6819 122.124 20.6236 123.121 19.8364C124.135 19.0492 125.482 18.6555 127.162 18.6555C128.596 18.6555 129.777 18.918 130.704 19.4428V18.8917C130.704 18.052 130.372 17.3435 129.707 16.7662C129.042 16.1715 128.264 15.8741 127.372 15.8741C126.025 15.8741 124.957 16.4426 124.17 17.5797L122.045 16.2414C123.217 14.562 124.949 13.7224 127.24 13.7224ZM135.736 14.1422H138.045V15.9265H138.15C138.518 15.2968 139.077 14.772 139.83 14.3521C140.599 13.9323 141.395 13.7224 142.218 13.7224C143.792 13.7224 144.999 14.1772 145.839 15.0869C146.696 15.979 147.124 17.2561 147.124 18.918V27H144.71V19.0754C144.658 16.9762 143.6 15.9265 141.535 15.9265C140.573 15.9265 139.768 16.3202 139.121 17.1074C138.474 17.8771 138.15 18.8042 138.15 19.8888V27H135.736V14.1422ZM162.172 11.177L159.102 19.6527H165.347L162.277 11.177H162.172ZM156.452 27H153.775L160.86 8.21186H163.589L170.674 27H167.997L166.187 21.9094H158.288L156.452 27ZM183.995 10.521V27H181.581V10.521H176.333V8.21186H189.243V10.521H183.995ZM195.015 27.4198C193.126 27.4198 191.569 26.7726 190.344 25.4781C189.12 24.1835 188.507 22.5479 188.507 20.5711C188.507 18.6118 189.102 16.9849 190.292 15.6904C191.481 14.3784 193.003 13.7224 194.857 13.7224C196.764 13.7224 198.277 14.3434 199.397 15.5854C200.534 16.81 201.103 18.5331 201.103 20.7548L201.076 21.0172H190.974C191.009 22.2767 191.429 23.2914 192.233 24.0611C193.038 24.8308 194 25.2157 195.12 25.2157C196.659 25.2157 197.866 24.4459 198.741 22.9065L200.893 23.9561C200.315 25.0407 199.511 25.8892 198.479 26.5014C197.464 27.1137 196.309 27.4198 195.015 27.4198ZM191.158 19.0229H198.531C198.461 18.1307 198.094 17.396 197.429 16.8187C196.782 16.2239 195.907 15.9265 194.805 15.9265C193.895 15.9265 193.108 16.2064 192.443 16.7662C191.796 17.326 191.367 18.0783 191.158 19.0229ZM209.316 27.4198C207.41 27.4198 205.826 26.7726 204.567 25.4781C203.325 24.1485 202.704 22.5129 202.704 20.5711C202.704 18.5943 203.325 16.9587 204.567 15.6641C205.826 14.3696 207.41 13.7224 209.316 13.7224C210.628 13.7224 211.774 14.0547 212.754 14.7195C213.733 15.3668 214.468 16.2677 214.958 17.4222L212.754 18.3407C212.072 16.7313 210.873 15.9265 209.159 15.9265C208.057 15.9265 207.103 16.3726 206.299 17.2648C205.511 18.157 205.118 19.2591 205.118 20.5711C205.118 21.8831 205.511 22.9852 206.299 23.8774C207.103 24.7696 208.057 25.2157 209.159 25.2157C210.926 25.2157 212.168 24.4109 212.885 22.8015L215.037 23.7199C214.564 24.8745 213.821 25.7842 212.806 26.449C211.809 27.0962 210.646 27.4198 209.316 27.4198ZM217.148 8.21186H219.562V14.1422L219.457 15.9265H219.562C219.93 15.2968 220.489 14.772 221.242 14.3521C222.011 13.9323 222.807 13.7224 223.629 13.7224C225.204 13.7224 226.411 14.1772 227.251 15.0869C228.108 15.979 228.536 17.2561 228.536 18.918V27H226.122V19.3903C226.122 17.0811 225.099 15.9265 223.052 15.9265C222.073 15.9265 221.242 16.3376 220.559 17.1598C219.895 17.9646 219.562 18.9092 219.562 19.9938V27H217.148V8.21186Z" fill="white"/>
<path d="M188.358 38.7877V40.2887H182.797V44.1604H187.812V45.6273H182.797V49.499H188.358V51H181.228V38.7877H188.358ZM193.926 51H192.357L188.979 42.6424H190.685L193.141 49.1238H193.175L195.666 42.6424H197.337L193.926 51ZM201.864 51.2729C200.636 51.2729 199.624 50.8522 198.828 50.0107C198.032 49.1693 197.634 48.1061 197.634 46.8212C197.634 45.5477 198.02 44.4902 198.794 43.6487C199.567 42.7959 200.556 42.3695 201.761 42.3695C203.001 42.3695 203.984 42.7732 204.712 43.5805C205.451 44.3765 205.821 45.4965 205.821 46.9406L205.804 47.1112H199.237C199.26 47.9299 199.533 48.5894 200.056 49.0897C200.579 49.59 201.204 49.8402 201.932 49.8402C202.933 49.8402 203.717 49.3399 204.286 48.3392L205.684 49.0215C205.309 49.7265 204.786 50.278 204.115 50.6759C203.456 51.0739 202.705 51.2729 201.864 51.2729ZM199.356 45.8149H204.149C204.104 45.235 203.865 44.7574 203.433 44.3822C203.012 43.9956 202.444 43.8023 201.727 43.8023C201.136 43.8023 200.624 43.9842 200.192 44.3481C199.772 44.7119 199.493 45.2009 199.356 45.8149ZM207.256 42.6424H208.757V43.8023H208.825C209.064 43.3929 209.428 43.0518 209.917 42.7789C210.417 42.506 210.934 42.3695 211.469 42.3695C212.492 42.3695 213.277 42.6652 213.822 43.2565C214.38 43.8364 214.658 44.6664 214.658 45.7467V51H213.089V45.849C213.055 44.4845 212.367 43.8023 211.025 43.8023C210.4 43.8023 209.877 44.0581 209.456 44.5698C209.035 45.0701 208.825 45.6728 208.825 46.3778V51H207.256V42.6424ZM219.376 51.1365C218.694 51.1365 218.125 50.9261 217.67 50.5054C217.227 50.0846 216.999 49.499 216.988 48.7486V44.0752H215.521V42.6424H216.988V40.084H218.557V42.6424H220.604V44.0752H218.557V48.2369C218.557 48.7941 218.665 49.175 218.881 49.3797C219.097 49.573 219.342 49.6696 219.615 49.6696C219.74 49.6696 219.859 49.6582 219.973 49.6355C220.098 49.6014 220.212 49.5616 220.314 49.5161L220.809 50.9147C220.399 51.0625 219.922 51.1365 219.376 51.1365ZM228.659 48.6803C228.659 49.4081 228.341 50.0221 227.704 50.5224C227.067 51.0227 226.266 51.2729 225.299 51.2729C224.458 51.2729 223.719 51.0569 223.082 50.6248C222.445 50.1813 221.99 49.6014 221.718 48.885L223.116 48.2881C223.321 48.7884 223.616 49.1807 224.003 49.4649C224.401 49.7378 224.833 49.8743 225.299 49.8743C225.8 49.8743 226.215 49.7663 226.544 49.5502C226.886 49.3342 227.056 49.0783 227.056 48.7827C227.056 48.2483 226.647 47.856 225.828 47.6058L224.395 47.2476C222.769 46.8383 221.956 46.0537 221.956 44.8939C221.956 44.132 222.263 43.5237 222.877 43.0688C223.503 42.6026 224.299 42.3695 225.265 42.3695C226.004 42.3695 226.67 42.5458 227.261 42.8983C227.863 43.2508 228.284 43.7227 228.523 44.3139L227.124 44.8939C226.965 44.5414 226.704 44.2685 226.34 44.0752C225.987 43.8705 225.589 43.7681 225.146 43.7681C224.736 43.7681 224.367 43.8705 224.037 44.0752C223.719 44.2798 223.56 44.53 223.56 44.8256C223.56 45.3032 224.009 45.6443 224.907 45.849L226.169 46.1731C227.829 46.5824 228.659 47.4182 228.659 48.6803Z" fill="white"/>
<defs>
<clipPath id="clip0_228_49">
<rect width="24.948" height="31.4421" fill="white" transform="translate(16 13)"/>
</clipPath>
</defs>
</svg>
