<svg width="16" height="17" viewBox="0 0 16 17" fill="none" xmlns="http://www.w3.org/2000/svg">
<path d="M3.23088 2.83122L3.43797 2.81469V2.60694V1.41246C3.43797 1.32175 3.474 1.23477 3.53814 1.17063C3.60228 1.10649 3.68926 1.07046 3.77997 1.07046C3.87067 1.07046 3.95766 1.10649 4.0218 1.17063C4.08594 1.23477 4.12197 1.32175 4.12197 1.41246V2.55629V2.78573L4.35137 2.78124C4.85146 2.77147 5.41307 2.77146 6.04797 2.77146H9.07197C9.70687 2.77146 10.2685 2.77147 10.7686 2.78124L10.998 2.78573V2.55629V1.41246C10.998 1.32175 11.034 1.23477 11.0981 1.17063C11.1623 1.10649 11.2493 1.07046 11.34 1.07046C11.4307 1.07046 11.5177 1.10649 11.5818 1.17063C11.6459 1.23477 11.682 1.32175 11.682 1.41246V2.60618V2.81378L11.8889 2.83046C12.9612 2.9169 13.608 3.12406 14.0747 3.59148L14.075 3.5917C14.506 4.02211 14.7157 4.60496 14.8135 5.53446H0.306441C0.404277 4.60551 0.613995 4.02207 1.04498 3.5917L1.04521 3.59148C1.51195 3.12407 2.15797 2.91691 3.23088 2.83122Z" fill="#FEFE75" stroke="#300334" stroke-width="0.45"/>
<path d="M0.225 8.59455C0.225 8.05136 0.225006 7.56183 0.23113 7.11855H14.8889C14.895 7.56183 14.895 8.05136 14.895 8.59455V10.1066C14.895 11.5384 14.8945 12.5897 14.7863 13.3946C14.6789 14.1932 14.4691 14.7155 14.0749 15.1094C13.6807 15.5033 13.1582 15.713 12.3598 15.8205C11.5549 15.9289 10.5038 15.9296 9.072 15.9296H6.048C4.6162 15.9296 3.5649 15.9291 2.75991 15.8208C1.96139 15.7134 1.43905 15.5037 1.0452 15.1095C0.65125 14.7152 0.441514 14.1928 0.334026 13.3943C0.225667 12.5894 0.225 11.5383 0.225 10.1066V8.59455ZM11.34 10.3316C11.6002 10.3316 11.8497 10.2282 12.0337 10.0442C12.2176 9.86025 12.321 9.61073 12.321 9.35055C12.321 9.09038 12.2176 8.84086 12.0337 8.65688C11.8497 8.47291 11.6002 8.36955 11.34 8.36955C11.0798 8.36955 10.8303 8.47291 10.6463 8.65688C10.4624 8.84086 10.359 9.09038 10.359 9.35055C10.359 9.61073 10.4624 9.86025 10.6463 10.0442C10.8303 10.2282 11.0798 10.3316 11.34 10.3316ZM11.34 13.3556C11.6002 13.3556 11.8497 13.2522 12.0337 13.0682C12.2176 12.8843 12.321 12.6347 12.321 12.3746C12.321 12.1144 12.2176 11.8649 12.0337 11.6809C11.8497 11.4969 11.6002 11.3936 11.34 11.3936C11.0798 11.3936 10.8303 11.4969 10.6463 11.6809C10.4624 11.8649 10.359 12.1144 10.359 12.3746C10.359 12.6347 10.4624 12.8843 10.6463 13.0682C10.8303 13.2522 11.0798 13.3556 11.34 13.3556ZM8.25367 10.0442C8.43764 9.86025 8.541 9.61073 8.541 9.35055C8.541 9.09038 8.43764 8.84086 8.25367 8.65688C8.0697 8.47291 7.82018 8.36955 7.56 8.36955C7.29982 8.36955 7.0503 8.47291 6.86633 8.65688C6.68235 8.84086 6.579 9.09038 6.579 9.35055C6.579 9.61073 6.68235 9.86025 6.86633 10.0442C7.0503 10.2282 7.29982 10.3316 7.56 10.3316C7.82018 10.3316 8.0697 10.2282 8.25367 10.0442ZM8.25367 13.0682C8.43764 12.8843 8.541 12.6347 8.541 12.3746C8.541 12.1144 8.43764 11.8649 8.25367 11.6809C8.0697 11.4969 7.82018 11.3936 7.56 11.3936C7.29982 11.3936 7.0503 11.4969 6.86633 11.6809C6.68235 11.8649 6.579 12.1144 6.579 12.3746C6.579 12.6347 6.68235 12.8843 6.86633 13.0682C7.0503 13.2522 7.29982 13.3556 7.56 13.3556C7.82018 13.3556 8.0697 13.2522 8.25367 13.0682ZM3.78 10.3316C4.04018 10.3316 4.2897 10.2282 4.47367 10.0442C4.65764 9.86025 4.761 9.61073 4.761 9.35055C4.761 9.09038 4.65764 8.84086 4.47367 8.65688C4.2897 8.47291 4.04018 8.36955 3.78 8.36955C3.51982 8.36955 3.2703 8.47291 3.08633 8.65688C2.90236 8.84086 2.799 9.09038 2.799 9.35055C2.799 9.61073 2.90236 9.86025 3.08633 10.0442C3.2703 10.2282 3.51982 10.3316 3.78 10.3316ZM3.78 13.3556C4.04018 13.3556 4.2897 13.2522 4.47367 13.0682C4.65764 12.8843 4.761 12.6347 4.761 12.3746C4.761 12.1144 4.65764 11.8649 4.47367 11.6809C4.2897 11.4969 4.04018 11.3936 3.78 11.3936C3.51982 11.3936 3.2703 11.4969 3.08633 11.6809C2.90236 11.8649 2.799 12.1144 2.799 12.3746C2.799 12.6347 2.90236 12.8843 3.08633 13.0682C3.2703 13.2522 3.51982 13.3556 3.78 13.3556Z" fill="#FEFE75" stroke="#300334" stroke-width="0.45"/>
</svg>
